<?xml version="1.0" encoding="utf-8"?>
<!-- Generator: Adobe Illustrator 17.1.0, SVG Export Plug-In . SVG Version: 6.00 Build 0)  -->
<!DOCTYPE svg PUBLIC "-//W3C//DTD SVG 1.1//EN" "http://www.w3.org/Graphics/SVG/1.1/DTD/svg11.dtd">
<svg version="1.1" id="Layer_1" xmlns="http://www.w3.org/2000/svg" xmlns:xlink="http://www.w3.org/1999/xlink" x="0px" y="0px"
	 viewBox="0 0 200 120" enable-background="new 0 0 200 120" xml:space="preserve">
<ellipse fill="#FFFFFF" stroke="#000000" stroke-width="6" stroke-miterlimit="10" cx="59" cy="61.9" rx="47.2" ry="46.2"/>
<line fill="none" stroke="#000000" stroke-miterlimit="10" x1="16.2" y1="42.5" x2="16.6" y2="41.6"/>
<line fill="none" stroke="#000000" stroke-width="6" stroke-miterlimit="10" x1="12.2" y1="56.3" x2="81.6" y2="22.2"/>
<line fill="none" stroke="#000000" stroke-width="6" stroke-miterlimit="10" x1="12.3" y1="67.5" x2="92.1" y2="28"/>
<line stroke="#000000" stroke-width="6" stroke-miterlimit="10" x1="14.6" y1="77.5" x2="97.6" y2="35.3"/>
<line fill="none" stroke="#000000" stroke-width="6" stroke-miterlimit="10" x1="19.4" y1="86.4" x2="101.8" y2="43.5"/>
<line fill="none" stroke="#000000" stroke-width="6" stroke-miterlimit="10" x1="15.2" y1="43.5" x2="69.1" y2="16.7"/>
<line fill="none" stroke="#000000" stroke-width="6" stroke-miterlimit="10" x1="25" y1="95" x2="104.3" y2="52.9"/>
<line fill="none" stroke="#000000" stroke-width="6" stroke-miterlimit="10" x1="34.8" y1="102.6" x2="106.2" y2="64"/>
<line fill="none" stroke="#000000" stroke-width="6" stroke-miterlimit="10" x1="50.8" y1="108.1" x2="103.2" y2="78.2"/>
<rect x="106.5" y="51.5" fill="#FFFFFF" stroke="#000000" stroke-width="3" stroke-miterlimit="10" width="6" height="16"/>
<rect x="5.5" y="52.5" fill="#FFFFFF" stroke="#000000" stroke-width="3" stroke-miterlimit="10" width="6" height="16"/>
<path fill="#EFCE0F" stroke="#EFCE0F" stroke-width="8" stroke-miterlimit="10" d="M87.2,99.7c-7.2,0.5-15.5-5.8-19.6-10.2
	C61.4,82.9,57,75,52.1,67.7C42,52.3,28.6,38.6,17.6,23.5C13,17.3,1.7,23.8,6.2,29.9c12.7,17.2,27.5,33.1,39,51
	c4.9,7.6,9.9,15,17.2,20.9c6.1,5,16.7,9.8,25.4,9.2C96.6,110.4,96,99.1,87.2,99.7z"/>
<path fill="#EFCE0F" stroke="#EFCE0F" stroke-width="8" stroke-miterlimit="10" d="M28.2,100.1c6.6,0.6,14.5-5.7,18.3-9.9
	c5.9-6.5,10.1-14.3,14.8-21.6C71,53.3,83.7,39.7,94.2,24.9c4.4-6.2,14.7,0.4,10.3,6.5c-12.1,17-26.2,32.8-37.2,50.4
	c-4.7,7.5-9.5,14.8-16.4,20.7c-5.8,4.9-15.7,9.6-23.6,8.8C19.2,110.7,20.1,99.4,28.2,100.1z"/>
<g>
	<path d="M120.7,30.2c1.4-0.3,3.1-0.4,5.1-0.4c2.1,0,4.2,0.3,5.8,1.5c1.2,1,1.7,2.4,1.7,3.9c0,1.9-1.1,3.8-3.3,4.7v0.1
		c2.7,0.7,4.1,2.8,4.1,5.2c0,1.8-0.6,3.2-1.7,4.2c-1.4,1.4-3.7,2.2-7.5,2.2c-1.7,0-3.1-0.1-4.2-0.2V30.2z M125.2,38.8h1
		c1.6,0,2.8-1.3,2.8-3c0-1.6-0.8-2.8-2.6-2.8c-0.5,0-0.9,0-1.2,0.1V38.8z M125.2,48.4c0.3,0.1,0.6,0.1,1,0.1c1.8,0,3.3-1,3.3-3.2
		c0-2.1-1.6-3.3-3.3-3.3h-1V48.4z"/>
	<path d="M150.7,40.3c0,8.1-3.1,11.5-7.4,11.5c-5.2,0-7.3-5.2-7.3-11.1c0-5.9,2.5-11,7.6-11C149.2,29.6,150.7,35.4,150.7,40.3z
		 M140.7,40.7c0,4.9,1,7.4,2.8,7.4c1.9,0,2.6-3.2,2.6-7.6c0-3.8-0.6-7.2-2.6-7.2C141.7,33.3,140.7,36,140.7,40.7z"/>
	<path d="M153.6,29.9h4.5v18.1h5.9v3.6h-10.4V29.9z"/>
	<path d="M171,29.9v21.6h-4.5V29.9H171z"/>
	<path d="M133.5,89.4c-1,0.4-3.1,0.8-4.8,0.8c-2.6,0-4.6-0.7-6.1-2.1c-2-1.8-3-5-3-8.7c0.1-7.9,4.9-11.1,9.7-11.1
		c1.7,0,3,0.3,3.8,0.6l-0.8,3.6c-0.6-0.3-1.5-0.5-2.6-0.5c-3,0-5.5,2-5.5,7.6c0,5.2,2.1,7.1,4.2,7.1c0.4,0,0.7,0,0.9-0.1v-5.2h-2
		v-3.4h6.2V89.4z"/>
	<path d="M136.8,68.7c1.4-0.3,3.2-0.4,4.9-0.4c2.5,0,4.6,0.3,6.1,1.6c1.4,1.2,1.8,2.6,1.8,4.5c0,2.3-1.2,4.4-3.5,5.4v0.1
		c1.6,0.6,2.4,2,2.8,4.3c0.4,2.4,1.1,5.1,1.5,5.9h-4.7c-0.3-0.6-0.8-2.8-1.1-5.2c-0.4-2.7-1.1-3.5-2.6-3.5h-0.6V90h-4.5V68.7z
		 M141.3,78.1h0.8c1.9,0,3.1-1.5,3.1-3.4c0-1.8-0.8-3.1-2.8-3.2c-0.4,0-0.8,0-1.1,0.1V78.1z"/>
	<path d="M157.3,68.4V90h-4.5V68.4H157.3z"/>
	<path d="M161.3,68.4h4.5v18.1h5.9V90h-10.4V68.4z"/>
	<path d="M174.2,68.4h4.5v18.1h5.9V90h-10.4V68.4z"/>
	<path d="M186.7,85.7c0.9,0.5,2.5,0.8,3.8,0.8c2.1,0,3.1-1,3.1-2.4c0-1.6-1-2.3-3-3.5c-3.1-1.8-4.3-4.1-4.3-6c0-3.5,2.5-6.4,7.3-6.4
		c1.5,0,2.9,0.4,3.6,0.8l-0.7,3.6c-0.6-0.4-1.6-0.7-2.9-0.7c-1.9,0-2.8,1.1-2.8,2.2c0,1.3,0.7,2,3.2,3.4c3,1.7,4.2,3.9,4.2,6.2
		c0,3.9-3.1,6.5-7.6,6.5c-1.8,0-3.6-0.4-4.4-0.9L186.7,85.7z"/>
</g>
<ellipse fill="#FFFF00" cx="180.8" cy="57.8" rx="8.7" ry="8.4"/>
<g>
	<path d="M183.7,62.5c-0.2-0.2-0.4-0.4-0.7-0.7c-0.8,0.5-1.9,0.8-3.1,0.8c-2.5,0-3.9-1.3-3.9-3c0-1.3,0.8-2.2,2.2-2.9v0
		c-0.7-0.7-1-1.5-1-2.3c0-1.4,1.3-2.6,3.5-2.6c1.8,0,3.1,0.9,3.1,2.4c0,1-0.4,1.8-2.4,2.9v0.1c0.6,0.7,1.5,1.7,2.1,2.2
		c0.5-0.7,0.6-1.7,0.6-2.5h2.3c-0.2,1.4-0.8,2.9-1.8,3.7c0.5,0.4,1.2,1.1,2,1.9H183.7z M181.9,60.6c-0.7-0.7-1.7-1.8-2.6-2.6
		c-0.4,0.3-0.8,0.8-0.8,1.5c0,0.9,0.7,1.7,1.9,1.7C181.1,61.1,181.6,60.9,181.9,60.6z M179.7,54.4c0,0.6,0.2,1,0.7,1.6
		c0.9-0.5,1.2-1,1.2-1.7c0-0.5-0.2-1.1-0.9-1.1C180,53.2,179.7,53.8,179.7,54.4z"/>
</g>
<g>
</g>
<g>
</g>
<g>
</g>
<g>
</g>
<g>
</g>
<g>
</g>
<g>
</g>
<g>
</g>
<g>
</g>
<g>
</g>
<g>
</g>
<g>
</g>
<g>
</g>
<g>
</g>
<g>
</g>
</svg>
